<svg width="18" height="17" viewBox="0 0 18 17" fill="none" xmlns="http://www.w3.org/2000/svg"><g clip-path="url(#clip0)"><path d="M13.91.93c-.59.13-1.18.26-1.4.63l-1.7 3.2-9.16 2.06-.37 1.02 7 .63-1.18 2.77-2.66.6-.67 1.09 1.92.2.22.89c.1.31.44.52.73.46l.89-.2 1.03 1.65.66-1.09-.65-2.68 1.92-2.31 3.67 6.08.74-.8-2.26-9.21 2.08-2.98c.22-.36.08-.95-.07-1.55-.07-.3-.44-.53-.74-.46z" fill="#1D2E5B"/></g><defs><clipPath id="clip0"><path fill="#fff" transform="translate(.33 .06)" d="M0 0h16.86v16.13H0z"/></clipPath></defs></svg>