<svg width="18" height="18" fill="none" xmlns="http://www.w3.org/2000/svg"><g opacity=".5" fill="#192144"><path d="M12.96 1.8a3.25 3.25 0 013.24 3.24v7.92a3.25 3.25 0 01-3.24 3.24H5.04a3.25 3.25 0 01-3.23-3.24V5.04A3.25 3.25 0 015.04 1.8h7.92zm0-1.08H5.04A4.32 4.32 0 00.72 5.04v7.92a4.32 4.32 0 004.32 4.32h7.92a4.32 4.32 0 004.32-4.32V5.04A4.32 4.32 0 0012.96.72z"/><path d="M9 5.82a3.19 3.19 0 110 6.38 3.19 3.19 0 010-6.38zm0-1.08a4.27 4.27 0 100 8.54 4.27 4.27 0 000-8.54zM13.43 5.56a.96.96 0 100-1.93.96.96 0 000 1.93z"/></g></svg>