<svg width="62" height="62" viewBox="0 0 62 62" fill="none" xmlns="http://www.w3.org/2000/svg"><circle cx="31" cy="31" r="31" fill="#FFD74B"/><path d="M36.28 21.4a4.33 4.33 0 014.32 4.32v10.56a4.33 4.33 0 01-4.32 4.32H25.72a4.33 4.33 0 01-4.31-4.32V25.72a4.33 4.33 0 014.31-4.32h10.56zm0-1.44H25.72a5.76 5.76 0 00-5.76 5.76v10.56a5.76 5.76 0 005.76 5.76h10.56a5.76 5.76 0 005.76-5.76V25.72a5.76 5.76 0 00-5.76-5.76z" fill="#192144"/><path d="M31 26.76a4.25 4.25 0 110 8.5 4.25 4.25 0 010-8.5zm0-1.44A5.7 5.7 0 1031 36.7a5.7 5.7 0 00.02-11.38zM36.9 26.41a1.29 1.29 0 100-2.57 1.29 1.29 0 000 2.57z" fill="#192144"/></svg>